# AST/ASF file generated using VICON BodyLanguage
# -----------------------------------------------
:version 1.10
:name VICON
:units
  mass 1.0
  length 0.45
  angle deg
:documentation
   .ast/.asf automatically generated from VICON data using
   VICON BodyBuilder and BodyLanguage model FoxedUp or BRILLIANT.MOD
:root
   order TX TY TZ RX RY RZ
   axis XYZ
   position 0 0 0  
   orientation 0 0 0 
:bonedata
  begin
     id 1 
     name lhipjoint
     direction 0.440178 -0.822639 0.359871 
     length 2.53113 
     axis 0 0 0  XYZ
  end
  begin
     id 2 
     name lfemur
     direction 0.34202 -0.939693 0  
     length 7.88132  
     axis 0 0 20  XYZ
    dof rx ry rz
    limits (-160.0 20.0)
           (-70.0 70.0)
           (-60.0 70.0)
  end
  begin
     id 3 
     name ltibia
     direction 0.34202 -0.939693 0   
     length 8.43783   
     axis 0 0 20   XYZ
    dof rx
    limits (-10.0 170.0)
  end
  begin
     id 4 
     name lfoot
     direction 0.0886351 -0.243523 0.965837   
     length 2.63414   
     axis -90 7.62852e-016 20   XYZ
    dof rx rz
    limits (-45.0 90.0)
           (-70.0 20.0)
  end
  begin
     id 5 
     name ltoes
     direction 1.53703e-011 -4.21717e-011 1   
     length 1.31427   
     axis -90 7.62852e-016 20   XYZ
    dof rx
    limits (-90.0 20.0)
  end
  begin
     id 6 
     name rhipjoint
     direction -0.399779 -0.839773 0.367367   
     length 2.47948  
     axis 0 0 0  XYZ 
  end
  begin
     id 7 
     name rfemur
     direction -0.34202 -0.939693 0   
     length 7.74806   
     axis 0 0 -20   XYZ
    dof rx ry rz
    limits (-160.0 20.0)
           (-70.0 70.0)
           (-70.0 60.0)
  end
  begin
     id 8 
     name rtibia
     direction -0.34202 -0.939693 0   
     length 8.74432   
     axis 0 0 -20   XYZ
    dof rx
    limits (-10.0 170.0)
 end
 begin
     id 9 
     name rfoot
     direction -0.108514 -0.298139 0.948334   
     length 2.66102  
     axis -90 -7.62852e-016 -20   XYZ
    dof rx rz
    limits (-45.0 90.0)
           (-20.0 70.0)
  end
  begin
     id 10 
     name rtoes
     direction -1.53392e-011 -4.22077e-011 1   
     length 1.31983   
     axis -90 -7.62852e-016 -20   XYZ
    dof rx
    limits (-90.0 20.0)
  end
  begin
     id 11 
     name lowerback
     direction 0.0113257 0.999866 0.0118602   
     length 2.58694   
     axis 0 0 0   XYZ
    dof rx ry rz
    limits (-20.0 45.0)
           (-30.0 30.0)
           (-30.0 30.0)
  end
  begin
     id 12 
     name upperback
     direction -0.0164747 0.995193 -0.0965375   
     length 2.52368   
     axis 0 0 0   XYZ
    dof rx ry rz
    limits (-20.0 45.0)
           (-30.0 30.0)
           (-30.0 30.0)
  end
  begin
     id 13 
     name thorax
     direction -0.0194301 0.99433 -0.104552   
     length 2.56099   
     axis 0 0 0   XYZ
    dof rx ry rz
    limits (-20.0 45.0)
           (-30.0 30.0)
           (-30.0 30.0)
  end
  begin
     id 14 
     name lowerneck
     direction 0.0148543 0.995587 -0.092657   
     length 1.71582   
     axis 0 0 0   XYZ
    dof rx ry rz
    limits (-20.0 45.0)
           (-30.0 30.0)
           (-30.0 30.0)
  end
  begin
     id 15 
     name upperneck
     direction -0.0135467 0.993656 -0.111639   
     length 1.68937   
     axis 0 0 0   XYZ
    dof rx ry rz
    limits (-20.0 45.0)
           (-30.0 30.0)
           (-30.0 30.0)
  end
  begin
     id 16
     name head
     direction -0.00615349 0.999547 -0.029448  
     length 1.7462  
     axis 0 0 0   XYZ
    dof rx ry rz
    limits (-20.0 45.0)
           (-30.0 30.0)
           (-30.0 30.0)
  end
  begin
     id 17 
     name lclavicle
     direction 0.988267 0.149885 0.0293713  
     length 4.47222  
     axis 0 0 0   XYZ
    dof ry rz
    limits (-20.0 10.0)
           (0.0 20.0)
  end
  begin
     id 18 
     name lhumerus
     direction 1 -4.48986e-011 -1.14833e-027   
     length 5.37148   
     axis 180 -30 -90   XYZ
    dof rx ry rz
    limits (-60.0 90.0)
           (-90.0 90.0)
           (-90.0 90.0)
  end
  begin
     id 19
     name lradius
     direction 0.999998 0.00170963 -0.000987055   
     length 3.94212   
     axis 180 -30 -90   XYZ
    dof rx
    limits (-10.0 170.0)
  end
  begin
     id 20
     name lwrist
     direction 0.999998 7.53149e-005 -0.00194706   
     length 1.97106   
     axis 4.65056e-015 90 90   XYZ
    dof ry
    limits (-180.0 0.0)
 end
  begin
     id 21 
     name lhand
     direction 1 -4.48973e-011 -1.31746e-026   
     length 1.17917   
     axis 8.4065e-015 90 90   XYZ
    dof rx rz
    limits (-90.0 90.0)
           (-45.0 45.0)
  end
  begin
     id 22 
     name lfingers
     direction 1 -4.49107e-011 -2.63492e-026   
     length 0.950679   
     axis 1.6813e-014 90 90   XYZ
    dof rx
    limits (0.0 90.0)
  end
  begin
     id 23
     name lthumb
     direction 0.707107 -6.35048e-011 0.707107   
     length 1.36499   
     axis -90 45 2.85299e-015   XYZ
    dof rx rz
    limits (-45.0 45.0)
           (-45.0 45.0)
  end
  begin
     id 24 
     name rclavicle
     direction -0.996699 0.0642895 -0.0495725   
     length 4.62611  
     axis 0 0 0   XYZ 
    dof ry rz
    limits (-10.0 20.0)
           (-20.0 0.0)
  end
  begin
     id 25 
     name rhumerus
     direction -1 -4.48919e-011 -2.41059e-027  
     length 5.4981   
     axis 180 30 90   XYZ
    dof rx ry rz
    limits (-90.0 60.0)
           (-90.0 90.0)
           (-90.0 90.0)
  end
  begin
     id 26 
     name rradius
     direction -0.999999 0.00118101 -0.000681858   
     length 3.48381   
     axis 180 30 90   XYZ
    dof rx
    limits (-10.0 170.0)
  end
  begin
     id 27 
     name rwrist
     direction -0.999999 0.000321823 -0.00132288   
     length 1.7419   
     axis 4.65056e-015 -90 -90   XYZ
    dof ry
    limits (-180.0 0.0)
  end
  begin
     id 28
     name rhand
     direction -1 -4.49022e-011 -1.31746e-026   
     length 1.34932   
     axis 8.4065e-015 -90 -90   XYZ
    dof rx rz
    limits (-90.0 90.0)
           (-45.0 45.0)
  end
  begin
     id 29
     name rfingers
     direction -1 -4.49178e-011 -2.63492e-026   
     length 1.08785   
     axis 1.6813e-014 -90 -90   XYZ
    dof rx
    limits (0.0 90.0)
  end
  begin
     id 30
     name rthumb
     direction -0.707107 -6.34713e-011 0.707107   
     length 1.56195   
     axis -90 -45 -2.85299e-015   XYZ
    dof rx rz
    limits (-45.0 45.0)
           (-45.0 45.0)
  end
:hierarchy
  begin
    root lhipjoint rhipjoint lowerback
    lhipjoint lfemur
    lfemur ltibia
    ltibia lfoot
    lfoot ltoes
    rhipjoint rfemur
    rfemur rtibia
    rtibia rfoot
    rfoot rtoes
    lowerback upperback
    upperback thorax
    thorax lowerneck lclavicle rclavicle
    lowerneck upperneck
    upperneck head
    lclavicle lhumerus
    lhumerus lradius
    lradius lwrist
    lwrist lhand lthumb
    lhand lfingers
    rclavicle rhumerus
    rhumerus rradius
    rradius rwrist
    rwrist rhand rthumb
    rhand rfingers
  end

#!OML:ASF X:\für Bonn\!DataBase\2005_08_10_Bjorn_Final\c3d\bjorn.ASF
:FULLY-SPECIFIED
:DEGREES
16
root 1.08098 19.3621 0.767771 332.755 -262.696 -384.938
lowerback 1.05811 0.978393 3.03504
upperback 9.9644 1.6104 -0.0262146
thorax 10.0426 1.23037 -1.56579
lowerneck 0.49064 -5.43514 1.10259
upperneck 23.2048 -6.14811 -2.12109
head 6.88706 -2.65234 -1.16878
rclavicle 2.34566e-014 0
rhumerus -20.0861 -11.5407 -86.4869
rradius 32.0997
rwrist -1.11397
rhand -16.6568 12.7617
rfingers 7.12502
rthumb 9.56647 -17.0011
lclavicle 2.34566e-014 0
lhumerus -26.0051 0.832169 88.7253
lradius 20.9628
lwrist -35.3024
lhand -4.74301 -4.91529
lfingers 7.12502
lthumb 21.0403 23.9633
rfemur -16.8722 -10.2216 15.9954
rtibia 28.9239
rfoot -3.79566 11.0796
rtoes 1.03972
lfemur -11.3874 7.04984 -19.8227
ltibia 54.7294
lfoot -3.46594 1.41649
ltoes -20.0537
17
root 1.15011 19.365 0.779891 332.061 -262.605 -385.742
lowerback 1.27059 1.07845 2.85306
upperback 10.0189 1.77825 -0.150568
thorax 9.98414 1.30751 -1.58772
lowerneck 0.527858 -5.52517 1.10371
upperneck 23.1885 -6.30586 -1.92528
head 6.8804 -2.71205 -1.11319
rclavicle -1.23246e-014 2.14687e-014
rhumerus -19.74 -10.8682 -86.7278
rradius 32.9379
rwrist -1.60355
rhand -16.8767 12.8973
rfingers 7.12502
rthumb 9.35434 -16.8752
lclavicle -1.23246e-014 2.14687e-014
lhumerus -26.4398 0.226644 88.7533
lradius 21.4427
lwrist -34.404
lhand -4.83691 -4.99754
lfingers 7.12502
lthumb 20.9501 23.8911
rfemur -16.8195 -10.279 15.8868
rtibia 29.0676
rfoot -4.09065 11.1704
rtoes 1.18826
lfemur -12.5051 7.4256 -20.1453
ltibia 53.9403
lfoot -4.2068 0.748013
ltoes -20.5995
18
root 1.21742 19.3686 0.792344 331.563 -262.548 -386.372
lowerback 1.45135 1.18038 2.69449
upperback 10.092 1.94683 -0.272075
thorax 9.96676 1.38814 -1.61892
lowerneck 0.474359 -5.61177 1.1187
upperneck 23.2342 -6.45974 -1.73664
head 6.90925 -2.76862 -1.06589
rclavicle -2.08724e-014 7.15625e-015
rhumerus -19.3404 -10.2533 -86.9475
rradius 33.7318
rwrist -2.02501
rhand -17.0427 13.0956
rfingers 7.12502
rthumb 9.19415 -16.684
lclavicle -2.08724e-014 7.15625e-015
lhumerus -26.8228 -0.459101 88.8087
lradius 21.9524
lwrist -33.3251
lhand -5.02938 -4.99922
lfingers 7.12502
lthumb 20.7652 23.9097
rfemur -16.8146 -10.3618 15.8254
rtibia 29.2341
rfoot -4.3348 11.287
rtoes 1.4519
lfemur -13.6026 7.81345 -20.4306
ltibia 53.0605
lfoot -5.00016 0.166268
ltoes -20.5698
19
root 1.28207 19.3698 0.804976 330.896 -262.49 -387.128
lowerback 1.69839 1.27822 2.51394
upperback 10.1769 2.11609 -0.417275
thorax 9.92341 1.46961 -1.66534
lowerneck 0.402875 -5.71171 1.26398
upperneck 23.3167 -6.61742 -1.65928
head 6.94426 -2.82364 -1.07706
rclavicle -5.4467e-014 -7.95139e-016
rhumerus -18.9407 -9.54914 -87.1746
rradius 34.5666
rwrist -2.55388
rhand -17.1871 13.19
rfingers 7.12502
rthumb 9.05479 -16.5957
lclavicle -5.4467e-014 -7.95139e-016
lhumerus -27.1983 -1.15054 88.8334
lradius 22.5068
lwrist -32.2285
lhand -5.23874 -4.98846
lfingers 7.12502
lthumb 20.564 23.9424
rfemur -16.7796 -10.4546 15.743
rtibia 29.4166
rfoot -4.6225 11.4488
rtoes 1.43023
lfemur -14.5931 8.17171 -20.7348
ltibia 52.1029
lfoot -5.85535 -0.220696
ltoes -20.9094
20
root 1.34333 19.3687 0.818491 330.298 -262.424 -387.822
lowerback 1.94377 1.35856 2.32156
upperback 10.2831 2.26355 -0.564406
thorax 9.90384 1.54097 -1.70895
lowerneck 0.232868 -5.7963 1.3916
upperneck 23.4491 -6.76129 -1.56114
head 7.01435 -2.87141 -1.08214
rclavicle -2.36554e-014 2.46493e-014
rhumerus -18.4819 -8.84531 -87.3882
rradius 35.3699
rwrist -3.02654
rhand -17.2999 13.3351
rfingers 7.12502
rthumb 8.946 -16.4552
lclavicle -2.36554e-014 2.46493e-014
lhumerus -27.4644 -1.72953 88.8149
lradius 23.0176
lwrist -31.1727
lhand -5.46768 -4.9752
lfingers 7.12502
lthumb 20.344 23.9792
rfemur -16.7815 -10.5217 15.6704
rtibia 29.627
rfoot -4.93396 11.5575
rtoes 1.39572
lfemur -15.5478 8.51885 -21.0232
ltibia 51.0888
lfoot -6.71179 -0.462528
ltoes -21.6647
21
root 1.40191 19.3662 0.831273 329.576 -262.387 -388.632
lowerback 2.18959 1.43922 2.11802
upperback 10.4255 2.41317 -0.694988
thorax 9.92396 1.61374 -1.7283
lowerneck 0.0201213 -5.86994 1.49274
upperneck 23.5244 -6.89164 -1.48722
head 7.07344 -2.91959 -1.09061
rclavicle -3.37934e-015 -1.59028e-015
rhumerus -17.9469 -8.14869 -87.5497
rradius 36.1719
rwrist -3.42707
rhand -17.4342 13.4836
rfingers 7.12502
rthumb 8.81633 -16.3123
lclavicle -3.37934e-015 -1.59028e-015
lhumerus -27.5836 -2.10517 88.7891
lradius 23.445
lwrist -30.2639
lhand -5.77107 -5.05674
lfingers 7.12502
lthumb 20.0524 23.9285
rfemur -16.7962 -10.5593 15.5907
rtibia 29.8599
rfoot -5.2116 11.6994
rtoes 1.56391
lfemur -16.4363 8.86592 -21.308
ltibia 50.0456
lfoot -7.45283 -0.543416
ltoes -22.3156
22
root 1.45835 19.3613 0.844387 329.046 -262.377 -389.247
lowerback 2.4672 1.51774 1.94269
upperback 10.5522 2.55719 -0.814753
thorax 9.90828 1.68503 -1.75453
lowerneck -0.122414 -5.94974 1.55741
upperneck 23.5512 -7.03418 -1.37728
head 7.10726 -2.97458 -1.07925
rclavicle -5.1684e-015 -5.1684e-015
rhumerus -17.433 -7.38511 -87.6753
rradius 36.9955
rwrist -3.9593
rhand -17.5255 13.7024
rfingers 7.12502
rthumb 8.72829 -16.0972
lclavicle -5.1684e-015 -5.1684e-015
lhumerus -27.7082 -2.55277 88.7972
lradius 23.9122
lwrist -29.2397
lhand -6.13882 -5.07779
lfingers 7.12502
lthumb 19.6989 23.9441
rfemur -16.8339 -10.6348 15.5594
rtibia 30.1053
rfoot -5.484 11.854
rtoes 1.45236
lfemur -17.266 9.18141 -21.5414
ltibia 48.9999
lfoot -8.01325 -0.539392
ltoes -22.058
23
root 1.51154 19.3566 0.857711 328.443 -262.384 -389.908
lowerback 2.78435 1.59483 1.75875
upperback 10.6893 2.69979 -0.918906
thorax 9.87972 1.75493 -1.76145
lowerneck -0.207897 -6.0184 1.61517
upperneck 23.5168 -7.15294 -1.30733
head 7.11002 -3.02364 -1.07535
rclavicle 1.09332e-014 -1.23246e-014
rhumerus -16.9177 -6.63972 -87.7451
rradius 37.741
rwrist -4.32052
rhand -17.7022 14.0087
rfingers 7.12502
rthumb 8.5577 -15.7979
lclavicle 1.09332e-014 -1.23246e-014
lhumerus -27.8224 -2.92841 88.806
lradius 24.4318
lwrist -28.2664
lhand -6.52236 -5.13787
lfingers 7.12502
lthumb 19.3302 23.9214
rfemur -16.8495 -10.6151 15.5252
rtibia 30.3452
rfoot -5.75321 11.9642
rtoes 1.58332
lfemur -18.0365 9.48763 -21.748
ltibia 47.9715
lfoot -8.41578 -0.498724
ltoes -21.1855
